<?xml version="1.0" encoding="UTF-8"?>
<svg xmlns="http://www.w3.org/2000/svg" version="1.2" baseProfile="tiny-ps" viewBox="0 0 900 900">
<title>Le Castel d’Alti</title>
<path d="M94.915 871.101c0-.37.9-.91 2-1.2 1.9-.5 2-1.4 2-16 0-11-.37-16-1.2-17-1.9-1.9 15-1.6 19 .27 5.3 2.7 4.8 10-.86 13-3.9 1.7-3.9 2.5-.08 3.4 3.6.78 7 4.8 7 8.2 0 3.9-2.7 7.9-6.1 9.4-3.3 1.4-22 2.1-22 .85zm21-3.1c3.2-3 3.2-9-.025-12-2.2-2.2-9.6-4.3-11-3.2-.43.27-.64 4.4-.46 9.1l.32 8.6h4.6c3.4 0 5.2-.59 6.9-2.2zm-4.2-17c2.4-.91 4.8-6.1 4-8.7-1.2-3.9-3.5-5.7-7.6-5.7h-3.8v15h2.9c1.6 0 3.6-.28 4.5-.62zm19 21c0-.43.8-.99 1.8-1.2 1.6-.42 7.1-13 14-31 .96-2.7 2.1-4.5 2.6-4 .84.85 6.9 15 12 28 1.7 4.4 3.3 7.1 4.5 7.4 3.7.97 1.7 1.9-4.2 1.8-3.3-.02-6-.39-6-.81s.68-.78 1.5-.78c2 0 1.9-1.9-.46-7.4l-2-4.6h-6.6c-6.2 0-6.6.14-7.6 2.8-.58 1.5-1.3 4.2-1.6 6-.43 2.6-.2 3.2 1.1 3.2.9 0 1.6.38 1.6.84s-2.2.86-5 .9-5-.29-5-.72zm22-16c-.26-.69-1.3-3.8-2.4-7-1-3.2-2.3-5.7-2.9-5.7-.55 0-1.8 2.6-2.8 5.7l-2.3 7c-.39.92.99 1.2 5.2 1.2 4.1 0 5.6-.34 5.2-1.2zm31 15c-2.3-1.2-5.2-3.9-6.8-6.3-5-7.8-3-21 4-26 8.8-6.1 24-5.4 25 1.3.42 1.6.62 3 .44 3.2-.18.18-2.2-1.5-4.5-3.8-4-4-4.3-4.1-9.2-3.7-9 .86-14 6.9-14 17-.046 4.4.57 6.8 2.8 11 3.6 6.5 8.2 8.9 15 7.9 5-.74 6.6-2.5 6.6-7.2-.018-3.3-.74-4.6-3.5-6.1-1.7-.94-.87-1.1 4.5-1.2 6.1-.029 6.4.05 4.2 1.5-1.8 1.3-2.2 2.5-2.2 6.9 0 6.3-.29 6.5-11 7.2-6.2.4-8.2.13-12-1.6zm38 1.4c0-.27 1.1-.91 2.5-1.4l2.5-.95v-16c0-16-.048-16-2.2-17-1.9-.76-1.6-.91 1.9-.97 4.2-.063 4.2 0 14 12l11 14c.75 1 1.8 1.9 2.2 1.9 1.2 0 1.1-26-.12-26-2-1.2-.93-2.1 2-1.7 2.1.31 2.7.78 2.1 1.6-.53.63-1.1 7.8-1.2 16-.23 16-.66 20-1.9 19-.44-.27-5.1-5.8-10-12-5.2-6.5-11-13-13-15l-3-3.5-.041 15c-.039 14 .048 15 2 15 1.1 0 2 .4 2 .9s-2.5.93-5.5.96c-3 .036-5.5-.15-5.5-.42zm49-.6c0-.46.9-.84 2-.84 1.9 0 2-.67 2-16 0-13-.31-17-1.4-18-1.3-1.4-.33-1.6 10-1.3 12 .31 12 .32 12 2.9.92 3.7-.098 4-2.5.93-1.9-2.5-2.6-2.7-8.1-2.4l-6 .29-.002 14 4.8.31c4.1.26 5.1-.05 6.6-2 1.8-2.3 1.8-2.3 1.8 2.9.022 5.2-1.3 7.1-2.3 3.2-.41-1.6-1.4-2-4.6-2.2l-5.3-.25c-.81-.069-1.1 2.5-1.1 8.4l.082 8.5 6.2.3c6.7.33 10-1.2 11-4.8 1.2-3.7 2.3-2.1 1.3 1.9-.98 3.9-1.1 3.9-6.6 4.5-7.6.82-21 .44-21-.6zm39 .064c0-.5.62-.9 1.4-.9 2 0 2.3-2.1 2.1-18-.15-11-.52-15-1.6-16-.88-.56.61-.87 4.1-.86 4.2.012 5.1.25 3.8 1-1.4.84-1.8 2.5-1.8 9v8h3.6c2.7 0 4.3-.74 6.3-2.9 3.9-4.2 3.9-8.5.084-12l-3.1-3.1 3.3.64c4 .77 7.8 4.8 7.8 8.3 0 1.7-1.4 4-4 6.5-4.5 4.5-4.6 4 2.2 14 2.1 3.2 4.5 5.8 5.3 5.8.77 0 1.7.45 2 1 .37.6-.85 1-3 1-4.3 0-7.1-2.8-12-12-2.5-4.7-3.6-5.9-5.8-6.1l-2.8-.32v7.7c0 6.8.22 7.7 2 8.2 3.9 1 1.9 2.1-4 2.1-3.3 0-6-.4-6-.9zm40 .021c0-.43 1-.93 2.2-1.1 2.2-.31 2.3-.59 2.5-16 .19-11-.087-16-.87-17-.97-1.2.6-1.4 9.9-1.4h11l.66 2.6c.93 3.7-.067 4.1-2.5 1-1.8-2.3-2.8-2.7-8-2.7h-5.9v15h4.9c4 0 5.2-.44 6.5-2.2 1.5-2.1 1.6-2 1.5 3.2-.05 4.3-.26 5-.97 3.2-.5-1.2-1.7-2.3-2.7-2.3-.98-.01-3.5-.29-5.5-.63l-3.8-.62v18h6.6c6.4 0 6.8-.15 10-3.8 2.2-2.3 3.3-3 2.8-1.8-.42 1.1-1 3.2-1.3 4.6l-.52 2.6-13 .01c-7.4 0-13-.34-13-.77zm43-.14c-1.6-.83-2.7-2.6-3.2-4.8-.93-4.5-.39-4.9 1.6-1.1 4.4 8.5 17 7.9 17-.79 0-4.2-1.3-5.7-7.5-9-11-5.7-13-12-7-18 3.3-3.3 3.8-3.5 9.1-3.1 3 .25 6.1 1.1 6.9 1.9 1.8 1.9 2.9 6.9 1.6 6.9-.56 0-1-.54-1-1.2 0-2.3-5.3-6.8-8.1-6.8-3.9 0-7.9 3.5-7.9 7 0 3 3.1 6 9.5 9.3 5.8 2.9 8.5 6.3 8.5 11 0 6.3-3.3 9.4-11 9.8-3.6.22-6.9-.14-8.4-.94zm55 .17c0-.39.9-.95 2-1.2 1.9-.5 2-1.4 2-16 0-11-.36-16-1.2-17-1-1.1.96-1.2 11-.95 14 .41 18 1.8 21 8.9 4.7 9.1.99 20-8.2 25-3.7 1.8-6.6 2.2-16 2.5-6.1.14-11-.072-11-.46zm25-3.6c4.7-3.5 6.6-7 7.1-13 .94-11-5.8-19-17-19-4.2 0-4.8.3-5.7 2.7-1 2.7-1.2 26-.17 29 .48 1.8 1.2 2 6.9 1.6 4.3-.27 7.2-1 9-2.4zm19 3.5c0-.35.9-.87 2-1.2 1.9-.5 2-1.4 2-16 0-12-.32-16-1.4-17-1.3-1.4-.33-1.6 10-1.3l12 .31.52 2.7c.7 3.7.34 3.7-2.7.7-2.3-2.3-3.3-2.6-8.4-2.3l-5.7.3v14l5.3.3c4.7.27 5.4.051 5.9-1.8 1-3.9 1.8-2.1 1.4 3.2-.28 4-.57 4.7-1.2 3.1-.59-1.6-2-2.3-5.4-2.8-2.5-.38-5-.44-5.5-.15-.48.3-.95 4.4-1 9.1l-.17 8.5h6.6c7.5 0 9.8-.9 12-4.8l1.6-2.7-.64 4c-.35 2.2-.86 4.4-1.1 4.8-.58.94-26 .52-26-.42zm64-.047c0-.37 1-.82 2.2-1 2.2-.31 2.3-.6 2.5-16 .25-14 .12-16-1.7-18-1.9-1.8-1.8-1.8 3.5-1.8 4.2 0 5.1.25 3.9 1.1-1.3.92-1.5 4-1.5 18v17h5.7c5.4 0 5.9-.23 9.7-4.2 2.2-2.3 3.7-3.4 3.2-2.2-.46 1.1-1.1 3.2-1.3 4.7-.4 2.3-1.1 2.8-4.6 3.2-5.5.71-22 .24-22-.63zm46 .23c-1.1-.46-3.1-2-4.5-3.5-2.4-2.5-2.5-3.4-2.8-16-.18-7.5-.8-14-1.4-15-.81-.97-.069-1.3 3.3-1.3 3.4 0 4.1.27 3.1 1.2-1.9 1.9-1.6 24 .32 28 3.3 6.4 12 7.9 18 3.1l3.3-2.9.33-13c.3-12 .14-13-1.4-15-1.6-1.1-1.3-1.3 2-1.3 2.9 0 3.6.29 2.8 1.2-.56.69-1.2 6.9-1.4 14-.47 15-2 19-7.9 21-4 1.4-11 1.6-13 .35zm46-.49c-5-1.8-7.6-4.1-9.8-9.1-2.5-5.4-2.3-11 .52-17 2-4.3 3.2-5.5 7.7-7.8 3.7-1.8 6.9-2.6 10-2.6 9.2 0 14 2.6 13 8.2-.039 2.3-.068 2.3-1.5-.34-3.5-6.5-13-8.8-19-4.6-5.4 3.6-7.3 7.1-7.8 14-.77 11 4.8 18 14 20 5.8.8 11-1.5 13-5.6 2-3.8 2.9-3.3 2 1-.51 2.3-1.6 3.5-4.1 4.6-4.2 1.8-14 1.7-19-.042zm32 .45c0-.42.9-1 2-1.3 1.9-.5 2-1.4 2-16 0-11-.37-16-1.2-17-.93-.93-.1-1.2 3.8-1.2 3.8.024 4.6.26 3.2 1-1.4.83-1.8 2.4-1.8 8.5v7.5h22v-7.3c0-4-.49-7.8-1.1-8.4-.8-.8.28-1.2 3.9-1.4 4.8-.34 4.9-.28 3.2 1.4-1.6 1.5-1.9 3.3-1.9 16 .01 15 .41 18 2.5 18 .76 0 1.4.34 1.4.77 0 .42-2.7.77-6 .77-6 0-7.8-.83-4-1.8 1.8-.47 2-1.4 2-8.6v-8.1h-22v8c0 7.6.12 8.1 2.5 9 1.4.52 2.5 1.1 2.5 1.4s-2.9.41-6.5.41-6.5-.35-6.5-.77zm58-.9c-7.9-3.6-12-12-9.6-21 1.5-7.1 4.1-11 10-13 13-5.7 27 2.7 27 16 0 15-14 24-28 18zm16-.56c5.2-2.7 8.3-13 6.2-21-2-7.4-8.6-13-15-13-3.9 0-9.3 3.8-12 8-2.8 5.4-2 15 1.6 21 4.3 6.5 12 8.9 19 5.6zm21 1.4c0-.53.85-.96 1.9-.96 2.7 0 3.1-2.5 3.1-19 .013-14-.06-14-2.2-15-2-.97-1.8-1.1 1.8-1.1 3.9 0 4.2.26 16 14l12 14 .28-13c.19-8.8-.099-13-.87-14-.95-1.1-.47-1.4 2.7-1.4 3.1.024 3.5.23 2.1 1-1.6.91-1.8 2.9-1.8 18 0 9.6-.39 17-.87 17s-3.5-3.2-6.8-7.1c-9.8-12-20-23-20-24-.61-.25-.74 8.9-.32 22 .16 5.1.56 6.8 1.7 6.8.79 0 1.7.4 2 .9.3.49-1.9.93-4.9.96-3 .036-5.5-.37-5.5-.9zm-352-15c0-1.2 1.3-1.5 6-1.5s6 .33 6 1.5-1.3 1.5-6 1.5-6-.33-6-1.5zm109 0c0-1.2 1.3-1.5 5.8-1.5s5.8.34 5.8 1.5-1.3 1.5-5.8 1.5-5.8-.34-5.8-1.5zm-252-28c-2.9-2.6-3-3-1.2-3 1.2-.018 2.7 1.2 3.8 3 2.2 3.8 1.6 3.8-2.6.029zm-53-50c-.001-1.3.8-1.8 2.9-1.8 1.7 0 4.2-1 5.8-2.4l2.8-2.4.29-36c.33-42 .29-42-7.2-44-2.5-.67-4.6-1.8-4.6-2.5 0-1.6 51-1.9 59-.24 12 2.3 24 9 30 18 8 11 10 24 6.6 38-4.5 16-15 27-34 33-4.3 1.5-8.9 1.8-34 1.9-27 .081-29-.034-29-1.7zm60-6c7-3.2 14-11 18-18 2.6-5.6 2.8-6.9 2.8-19 0-13-.005-13-3.7-21-4.5-9.1-11-16-20-19-4.7-1.9-7.6-2.3-17-2.3-7.9-.01-12 .38-13 1.4-1.5 1.2-1.7 5.1-1.7 37 0 24 .37 36 1.1 38 1.7 4.9 5.4 6.1 17 5.7 8.1-.28 11-.82 16-2.9zm86 6.1c0-1 1.1-1.9 2.9-2.2 4.5-.89 7.4-5.7 14-23l9.4-24c1.8-4 4.9-13 6.9-18 10-27 9.1-24 12-25 2.9-.29 3.1.011 6.2 7.5l13 32 9.4 23c8.6 21 11 25 15 27 2.1 1.1 3.7 2.7 3.8 3.5.004 2.3-34 1.9-35-.45-.23-1.1.46-1.6 2.3-1.6 4 0 6.5-1.8 6.5-4.6 0-2.5-7.5-23-9.3-25-.74-.96-4.8-1.2-16-1l-15 .28-4.3 12c-2.3 6.6-4.3 13-4.3 14-.004 2.1 3.7 4.8 6.7 4.8 1.5 0 2.3.6 2.3 1.8 0 1.6-1.3 1.8-14 1.8-12 0-14-.21-14-1.6zm56-39c-.3-.96-2.2-6-4.2-11s-4.8-13-6.2-17c-1.5-4.2-2.9-7-3.4-6.5-.48.48-2.2 4.7-3.8 9.3l-6 17c-1.7 5-3 8.7-3 9.2 0 .52 5.9.93 14 .93 13 0 14-.14 13-1.8zm48 38c0-1.2.78-1.8 2.5-1.8 3.9 0 7.5-2.1 8.3-4.9.4-1.4.73-19 .73-39 0-35-.1-37-1.9-39-1.1-1.2-3.6-2.4-5.8-2.7-2.3-.36-3.8-1.2-3.8-2 0-1.1 3.6-1.4 20-1.4 17 0 20 .22 20 1.5 0 .94-.95 1.5-2.5 1.5-3.3 0-8 2.5-8.8 4.5-.34.89-.62 18-.62 39 0 33 .17 37 1.7 39 2.1 1.7 17 1.7 23-.032 5.1-1.4 11-6.8 15-13 2.6-4.4 4.1-5.3 4.8-3.1.23.69-.57 6.1-1.8 12l-2.2 11-34 .22c-32 .2-34 .11-34-1.5zm94 0c0-1.3.81-1.8 2.9-1.8 1.7 0 4.2-1 5.8-2.4l2.8-2.4.57-78h-9.8c-13 0-16 1.4-20 9.2-2 4.2-3.2 5.6-4.3 5.1-1.6-.6-1.5-2.2.17-16l.53-4.2h79l.49 3.2c.27 1.8.75 6.3 1.1 10 .52 6 .39 6.7-1.2 6.7-1.2-.015-2.5-1.7-3.9-4.9-3.1-7-5.6-8.3-18-9-5.5-.33-10-.4-10-.17-.23.23-.42 18-.42 39v39l2.3 2.3c1.3 1.3 4.2 2.6 6.6 3 2.4.38 4.1 1.1 3.9 1.7-.21.62-7.8 1.1-20 1.2-18 .2-19 .085-19-1.5zm72 1.3c-1.4-1.4-.056-3.1 2.5-3.1 1.6 0 4.1-.93 5.5-2.1l2.6-2.1-.015-39c-.008-21-.35-39-.75-40-1.2-1.8-4.9-3.4-7.7-3.4-1.6 0-2.6-.56-2.6-1.5 0-1.3 2.8-1.5 19-1.5 15 0 19 .26 19 1.4 0 .82-1.6 1.6-3.9 2-7.2 1.1-7.1.32-7.1 43v38l2.6 2.1c1.4 1.1 3.9 2.1 5.5 2.1 1.8 0 2.9.52 2.9 1.5 0 1.2-3.1 1.5-19 1.8-10 .16-19 .11-19-.12zm-301-61c-.96-1.2-.41-2.1 2.9-5.1 5.2-4.7 7.1-10 4.7-14-.92-1.4-2.1-2.5-2.6-2.5-1.9 0-4-3.2-4-6 0-3.6 3.2-6 7.8-6 6.7 0 10 4.4 10 13 0 6.9-3 12-9.8 17-7.8 5.6-7.9 5.6-9.2 4zm-5.9-76c-17-3.8-30-14-36-29-10-27 6.5-57 35-64 11-2.3 17-2.8 26-1.6 8.2 1.1 18 4.3 19 6 .31.5 1.2 4.8 2.1 9.6 1.2 7.1 1.3 8.8.2 9.5-2.1 1.3-2.3 1.1-3.8-2.9-.74-2-3.9-6.3-7-9.4-4.6-4.6-6.9-6-12-7.4-12-3.5-28 .66-36 9.3-8 9.1-12 25-10 38 2.7 17 10 29 23 35 5.9 2.9 7.6 3.3 15 3.3 6.7-.016 8.8-.45 13-2.7 6.3-3.3 12-8.8 15-16 2.7-5.4 3.2-5.8 5.4-4.4 1 .66.87 2.5-.87 9.2-2.8 11-3 11-9.2 14-9.1 4.4-27 5.8-40 3.1zm178 .4c-3-.49-7.2-1.9-9.4-3.1-4-2.2-4.1-2.4-6.7-13-2.3-9-2.5-11-1.2-11 2.6-1 3.1-.6 4.9 4.6 3.7 10 15 19 24 19 10 .024 18-7 18-16s-2.7-12-18-21c-13-7.3-19-12-23-17-2.2-3.2-2.5-4.7-2.5-12 0-11 2-15 8.9-20 6.3-4.3 11-5.7 21-5.7 6.8.012 20 2.5 20 3.8 0 .21.67 3.9 1.5 8.2 1.9 9.7 1.9 10-.051 10-.85 0-2.2-1.6-3-3.5-2-4.8-8.2-11-12-13-10-4.2-22 .87-24 10-1.9 8.4 2.5 15 14 21 27 15 31 19 31 31 0 8.6-1.7 13-6.4 18-8.2 8.4-20 11-36 8.5zm-416-2.2c0-.82 1.6-1.6 3.9-2 2.6-.41 4.7-1.5 6-3.3 2-2.6 2.1-3.7 2.1-40v-37l-2.5-2.5c-2.2-2.2-4.8-3-8.3-2.5-.69.089-1.2-.67-1.2-1.7 0-1.7 1.1-1.8 19-1.6 18 .23 24 1.3 16 2.8-2.1.39-4.8 1.6-6 2.8l-2.2 2.1v38c0 38 .003 38 2.2 39 3.1 1.7 21 .63 27-1.5 4.2-1.7 10-7.9 12-13 .66-1.5 1.7-2.5 2.3-2.3 1.3.45 1.2 2.1-.99 14l-1.6 9.2h-34c-28 0-34-.24-34-1.4zm81 .37c-.34-.55-.031-1.2.69-1.4 6.9-2 9.3-3.4 9.9-5.6 1.1-3.9 1-74-.064-76-1.1-2.8-3.7-4.5-7.5-4.9-1.5-.13-2.6-.82-2.6-1.7 0-1.3 3.8-1.5 32-1.3l32 .5c0 .12.46 3.9.83 8.5.63 7.8.56 8.2-1.4 8.2-1.3 0-2-.66-2-1.8 0-2.5-6-8-10-9.2-1.9-.53-8.2-1.2-14-1.4l-11-.48v37l11-.38c11-.37 11-.48 14-3.2 1.3-1.5 2.4-3.9 2.4-5.3 0-1.6.47-2.4 1.2-2.1.9.3 1.3 4.2 1.5 14 .24 12 .06 14-1.2 14-.87 0-1.5-.88-1.5-2 0-3.3-2.9-8-5.6-9-1.4-.53-6.9-.96-12-.96l-9.7-.001.29 19c.35 23-.65 22 15 21 16-.98 20-2.5 25-8.2 2-2.6 3.8-5.7 4.1-7 .62-2.5 1.2-2.8 3-1.6.77.52.48 3.9-1 11l-2.1 11h-35c-22 0-35-.36-35-1zm214-.49c0-.82.84-1.5 1.9-1.5 2.5 0 6.8-3.5 8.7-7.1 1.6-3 10-25 14-35 1.1-3 2.4-6.4 2.9-7.5s3.7-9.4 7-18c7.6-21 8.6-23 10-23 .79 0 2-.23 2.8-.52.89-.34 1.9.95 3 3.8.91 2.3 3.5 8.8 5.8 14l7 17 7.4 18 7.7 19c4.6 12 7.4 16 11 18 1.9.91 3.5 2.3 3.5 3.1 0 1.2-2.8 1.5-17 1.5-15 0-17-.22-17-1.5 0-.89 1.2-1.8 3-2.1 3.9-.78 5.4-2.7 4.7-6.1-.68-3.6-7.6-21-8.9-23-.78-.95-4.8-1.2-16-1l-15 .28-3.5 9.5c-5.8 16-5.5 19 1.3 21 1.9.36 3.4 1.2 3.4 2 0 1.1-2.7 1.4-14 1.4-12 0-14-.24-14-1.5zm55-39c-.38-1.2-2.3-6.3-4.2-11s-4.5-12-5.8-16c-1.2-3.8-2.7-7.1-3.2-7.3s-1.9 2.5-3 6c-2.2 6.6-9.4 26-11 29-.7 1.6.3 1.8 13 1.8h14zm143 39c0-.71 2-1.8 4.6-2.5 7.5-2 7.5-2.1 7.2-45l-.26-37-6.5-.33c-13-.67-20 2.3-23 11l-1.5 3.7c-.1.15-.91-.01-1.8-.34-1.2-.47-1.5-1.6-1.2-4.8l1-9.7.56-5.5 40 .24c33 .19 40 .48 40 1.6.11.75.36 5.1.56 9.8.29 6.7.078 8.4-1 8.4-.77 0-2-1.8-2.8-4-2.6-7.8-9-11-22-10l-7.2.29v39c0 39 .037 39 2.1 41 1.2 1.2 4 2.4 6.2 2.7 2.6.34 4.1 1.1 4.1 1.9 0 1.1-3.7 1.4-20 1.4-15 0-20-.28-20-1.3zm73-.067c0-.84 1.6-1.6 3.9-2 7.2-1.1 7.1-.36 7.1-43 0-24-.37-39-1-40-.59-1.1-3-2.4-5.5-3.1-10-2.5-3.9-3.2 28-3l32 .42c.11.14.44 4 .74 8.5.49 7.5.37 8.2-1.2 8.2-1 0-2.3-1.2-3-2.9-2.8-6.8-7.5-8.7-24-9.7l-11-.68v37l11-.36c13-.4 14-1.1 15-6.9.37-1.8 1.2-3.5 1.9-3.7.93-.31 1.2 3 1.2 14s-.3 14-1.2 14c-.67-.22-1.5-1.9-1.9-3.7-1.3-6.4-3.6-7.5-16-7.9l-11-.34v20c0 24-.97 22 15 21 13-.81 18-1.8 21-4.3 2.4-1.8 8.4-9.8 9.4-12 .34-.92.79-.97 1.6-.19.88.82.6 3.6-1.1 12l-2.3 10-35 .26c-29 .22-35 .036-35-1.1zm87-.013c0-.82 1.6-1.6 3.9-2 2.6-.41 4.7-1.5 6-3.3 2-2.6 2.1-3.7 2.1-40v-38l-2.2-2.1c-1.2-1.1-3.9-2.4-6-2.7-2.1-.37-3.8-1.2-3.8-1.9 0-.9 5-1.2 20-1.2 14 0 20 .33 20 1.1 0 .62-2 1.6-4.4 2.3-7.8 2-7.6.68-7.6 43 0 38 .004 38 2.2 39 3.1 1.7 21 .63 27-1.5 4.1-1.7 9.6-7.3 12-13 1.7-3.3 1.5-3.1 3.3-2.4 1.2.45 1.4 1.2.77 2.8-.45 1.2-1.4 5.5-2 9.7s-1.4 8.3-1.7 9.2c-.46 1.6-3 1.8-34 1.8-28 0-34-.24-34-1.4zm-712-287l-.01-153-7.1-9 2.9-.74c1.9-.5 6-4.3 12-11l19-22c5-6 14-16 20-22l15-17 36-39 4-4.4 11-.2c6.2-.11 11-.001 12 .24.18.24 4.3 4.9 9.3 10s13 15 19 22l9.9 12h248l249-1.4c.73-.76 4.9-5.6 9.3-11l18-21 10-11 24-.074 4.2 4.9 4.7 5.4c4.8 4.5 66 72 81 89 12 14 14 16 17 15 2.8-.89 2.4.63-1.6 5.8l-3.5 4.6v306h-222l-.3-6.2c-.27-5.8-.48-6.2-2.5-6.2-1.2.039-87 .15-190 .25l-188 .18v12h-221zm216 150c1.4-.44 1.7-2.5 1.8-15 .071-8.2-.15-16-.5-16-.58-1.5-9.5-1.6-107-1.6h-106v16c0 9 .2 17 .44 17 .62.62 210 .95 212 .34zm602-.59c.53-.58 1.3-30 .82-32-.35-.99-23-1.2-107-1.2h-107v16c0 12 .32 17 1.2 17 1.5.5 212 .099 212-.41zm-218-27l.28-15h-380v15c0 8.2.3 15 .67 16s86 .56 190 .42l189-.25zm-248 10c0-1.3 7.2-1.5 58-1.5s58 .18 58 1.5c0 1.3-7.2 1.5-58 1.5s-58-.18-58-1.5zm9-9c0-1.3 6.2-1.5 50-1.5s50 .19 50 1.5-6.2 1.5-50 1.5-50-.19-50-1.5zm8-8.5c0-.65 14-1 42-1s42 .35 42 1-14 1-42 1-42-.35-42-1zm-152-68v-65l-214-.51v131l214-.51zm-176-5v-44h50v87h-50zm24 37c.21-.69.22-6.5.021-13l-.37-12h-18v12c0 6.8.3 13 .67 13 1.3 1.3 17 .75 18-.58zm20-12v-12l-18-.58v12c0 6.8.32 13 .7 13 .39.39 4.5.57 9.2.42l8.5-.29zm-20-16c.28-.35.36-5.7.19-12l-.31-11-17 .58-.28 11c-.19 7.5.093 12 .81 12 1.3.81 16 .031 17-.88zm20 .22c.61-.61.91-5.4.74-12l-.29-11h-18l-.28 11c-.21 8.4.049 12 .99 12 1.8 1.1 16 .46 17-.78zm-20-35l-.25-11c-.008-.41-4.1-.75-9-.75h-9v11c0 7.8.36 11 1.2 11 .69.29 4.8.44 9.2.33l8-.19zm20-.5v-11l-18-.58v11c0 7.8.36 11 1.2 11 .69.29 4.8.44 9.2.33l8-.19zm47 26l.23-44h50v87h-50zm24 25l.28-13h-9c-6.5 0-9 .34-9.1 1.2l-.4 12c-.45 13-.46 13 10 12l7.5-.24zm20 .21v-13l-18 .58-.28 11c-.16 6.3-.058 12 .22 13 .36.94 2.9 1.3 9 1.3h8.5zm-20-27l.28-12-18 .58-.29 11c-.16 6-.1 11 .12 12 .25.65 3.7 1 8.8.93l8.4-.14zm20-.19v-12l-18 .58-.28 11c-.16 6.3.13 12 .65 12 .51.32 4.6.43 9 .25l8.1-.33zm-20-25l.28-11h-18v11c0 6 .32 11 .7 12 .39.39 4.3.57 8.8.42l8-.29zm20 0l.28-11h-18v11c0 7.8.36 11 1.2 11 .69.29 4.6.44 8.8.33l7.5-.19zm643 32l-.024-66c-.17-.41-48-.75-107-.75h-107v131h214zm-178-5.8v-44h51v87h-51zm24 26v-12h-18l-.28 11c-.16 6.3-.051 12 .23 13 .39 1 2.6 1.3 9.3 1.1l8.8-.29zm20-.25l.28-13h-18v26l18-.58zm-21-15c.65-.78.95-5.5.78-12l-.28-11-8.4-.29c-6.1-.21-8.6.069-9.2 1-1.4 2.2-1 23 .4 23 3.1 1 16 .45 17-.76zm15 .52l5.8-.014-.56-24-18-.58v12c0 13 .35 13 4.5 13 1.1-.24 4.6-.44 7.8-.44zm-14-37l.28-11-18 .58-.51 10c-.39 7.9-.2 11 .78 11 .71.46 4.9.73 9.3.59l8-.26zm16 11h3.9v-22h-18v11c0 6 .34 11 .75 12s2.7.49 5.1.17 6.1-.6 8.2-.6zm50 16v-44h50v87h-50zm24 26v-12l-18-.58v12c0 6.8.32 13 .7 13 .39.39 4.3.57 8.8.42l8-.29zm21-.25l.28-13h-19v12c0 6.8.32 13 .7 13 .39.39 4.5.57 9.2.42l8.5-.29zm-28-15h7l-.56-24-18-.58v12c0 6.5.31 12 .7 13 .38.38 1.3.46 2.1.17.76-.29 4.5-.53 8.3-.53zm27 .034c.43-.019.66-5.3.5-12l-.28-12h-18l-.28 11c-.16 6.4.13 12 .65 12 .73.46 8.4.51 17 .11zm-22-26c1.3-.5 1.6-2.5 1.6-12v-11l-18 .58-.29 9.9c-.16 5.5-.06 11 .22 11 .53 1.4 13 1.9 16 .71zm18-.32l4.8-.071-.57-22-18-.58v11c0 12 .11 12 6 12 1.9-.19 5.7-.38 8.3-.42zm-389 27l.26-50h56l-.062 26-.03 50 .031 24h161v-116l-173 .41-190 .4-17-.012v115l162-.51zm-145 21c-.23-.23-.29-16-.14-36l.28-35h41v71h-20c-11 0-21-.19-21-.42zm19-15v-9.5l-14-.59v20l14-.59zm17-.25l.29-9.8h-16v9.3c0 5.1.32 9.7.71 10s3.9.58 7.8.42l7-.29zm-17-21v-9l-14-.59v19l14-.59zm17 0v-9h-15l-.29 7.9c-.16 4.4-.056 8.5.24 9.3.4 1 2.3 1.3 7.8 1.1l7.3-.29zm-17-20v-9h-13l-.58 17 4.8.39c9.4.77 8.8 1.3 8.8-8.8zm16 8.6c.93-.59 1.2-3.2 1-9.2l-.29-8.4h-15l-.29 8.4c-.34 9.8-.13 10 7.8 10 3 0 6.1-.37 6.8-.82zm41 47c-.33-.33-.6-16-.6-35v-35h42l-.53 70-20 .19c-11 .1-20-.084-21-.42zm20-14v-10h-15v20h15zm16 7.7c.31-1.2.43-5.6.27-9.8l-.3-7.5-14-.59v20h7c6.4 0 7-.18 7.5-2.3zm-16-29v-9.5h-15v19h15zm16 0v-9h-14l-.29 7.9c-.16 4.4-.056 8.5.24 9.3.4 1 2.2 1.3 7.3 1.1l6.8-.3zm-16-20v-9l-14-.59v8.9c0 4.9.32 9.2.71 9.6.39.39 3.7.58 7.2.42l6.5-.29zm15 8.6c.93-.59 1.2-3.2 1-9.2l-.29-8.4h-14l-.29 8.4c-.34 9.7-.08 10 7.3 10 2.8 0 5.6-.37 6.3-.82zm118 47c-.33-.33-.61-16-.61-35v-35h41v71l-20 .089c-11 .049-20-.18-20-.52zm19-15l.29-9.8h-15v9.3c0 5.1.32 9.7.71 10 .39.39 3.7.58 7.2.42l6.5-.29zm16-.045l.29-9.8-15 .59-.29 8.4c-.16 4.6-.055 9 .24 9.8.39 1 2.3 1.3 7.3 1.1l6.8-.3zm-16-21l-.29-9.2h-14l-.29 7.9c-.16 4.4-.064 8.5.22 9.2.36.94 2.6 1.3 7.6 1.3h7.1zm16-.25v-9l-6.4-.3c-4.5-.21-6.7.096-7.2 1-1 1.6-1.1 16-.15 17 .39.39 3.7.58 7.2.42l6.5-.29zm-16-20v-9h-14l-.29 8.4c-.18 5.1.12 8.7.74 9.1.57.35 3.9.62 7.3.59l6.3-.056zm15 8.6c.93-.59 1.2-3.2 1-9.2l-.29-8.4h-14l-.29 8.4c-.34 9.7-.08 10 7.3 10 2.8 0 5.6-.37 6.3-.82zm41 47c-.25-.25-.45-16-.45-35v-35h42l-.46 70-20 .037c-11 .02-20-.17-21-.42zm19-14l.29-9.8-15 .59-.29 8.4c-.16 4.6-.055 9 .24 9.8.39 1 2.3 1.3 7.3 1.1l6.8-.3zm16 .045l.29-9.8h-7c-5.8 0-7.1.3-7.5 1.8-.63 2.3-.61 17 .033 18 .27.44 3.5.66 7.2.5l6.7-.29zm-16-21v-9l-6.4-.3c-4.5-.21-6.7.096-7.2 1-1 1.6-1.1 16-.15 17 .39.39 3.7.58 7.2.42l6.5-.29zm16 0v-9l-14-.59v19l14-.59zm-18-11c2.2-.049 2.3-.28 2-8.8l-.29-8.8-13-.59-.35 8.3c-.19 4.6.022 8.8.47 9.5.48.68 2.6 1 5 .8 2.3-.2 5.2-.39 6.5-.41zm18-8.6v-9l-13-.59-.32 8.6c-.18 4.7.07 9 .55 9.5.48.48 3.6.79 7 .7l6.1-.18zm-196-20c0-2 .57-2 30-1.8 28 .23 30 .39 31 2 .31 1.6-1.7 1.8-30 1.8-30 0-31-.043-31-2zm28 104c.87-2.6-.43-26-1.6-29-.93-1.9-.91-2.5.066-2.8.95-.32 1.2-5.5 1.2-21v-21h-20v37c0 20 .3 37 .67 38 1.3 1.3 19 .75 20-.58zm25-36v-38h-21v75h21zm0-50v-8h-45v16h45zm167-86v-55h-379l-.65 7.7c-.36 4.2-.65 29-.65 55v47h380zm-359 33l-2.8-.44.52-70h20c11 0 20 .34 20 .75v71l-18-.05c-9.8-.027-19-.25-21-.49zm17-15l-.29-9.2-14-.59v19h14zm16-.25v-9.5h-15v19h15zm-16-21v-9l-14-.59v19l14-.59zm16 0v-9h-14l-.29 7.9c-.16 4.4-.056 8.5.24 9.3.4 1 2.2 1.3 7.3 1.1l6.8-.3zm-17-11c1.3-.48 1.6-2.2 1.6-8.4 0-9.3-.75-10-8.2-9.8l-5.3.31-.29 7.9c-.16 4.4-.064 8.5.22 9.2.53 1.4 8.9 1.9 12 .73zm16 0c1.3-.49 1.6-2.3 1.6-8.9 0-9.3-.15-9.5-7.5-9.5-7.3 0-7.5.19-7.5 9.5 0 5.7.39 8.5 1.2 8.8 1.8.73 10 .77 12 .055zm61 47l-20-.27.59-35 .64-35c.029-.14 9.3-.25 21-.25h20v35c0 19-.34 36-.75 36s-9.9.19-21 .038zm.89-15v-9.5l-14 .59-.29 7.9c-.16 4.4-.064 8.5.22 9.2.36.94 2.6 1.3 7.5 1.3h7zm15 0v-9.5l-13 .59-.069 8.5c-.038 4.7.093 8.8.29 9.2.2.41 3.3.75 6.8.75h6.4zm-16-21v-9h-14l-.29 7.9c-.16 4.4-.056 8.5.24 9.3.4 1 2.2 1.3 7.3 1.1l6.8-.3zm16 8.2c.21-.69.22-5 .031-9.5l-.35-8.2h-13l-.42 8.8c-.23 4.8-.25 9.1-.044 9.5.67 1.3 13 .87 13-.5zm-16-28v-9l-4.9-.31c-9.3-.59-9.6-.36-9.6 9.2 0 5.8.39 8.6 1.2 8.9.69.27 4 .42 7.2.33l6-.16zm15 8.3c1.2-1.2 1.7-13 .59-16-.45-1.2-2-1.6-5.9-1.6-8.4 0-8.5.11-8.5 8.9 0 4.7.47 8.2 1.2 8.9 1.6 1.6 11 1.6 13 0zm118 47c-.63-.21-.99-13-.99-36v-35h41v71l-20 .29c-11 .16-20 .14-20-.042zm19-14l-.29-9.2-14-.59v19h15zm16-.25v-9l-14-.59v19l14-.59zm-16-21v-9h-14l-.29 7.9c-.16 4.4-.056 8.5.24 9.3.4 1 2.2 1.3 7.3 1.1l6.8-.3zm16 6.2c.33-1.8.47-6 .3-9.2l-.31-6h-14l-.29 7.9c-.16 4.4-.064 8.5.22 9.2.36.93 2.5 1.3 7 1.3h6.5zm-17-18c.71-.85 1-4.4.85-9.2l-.29-7.8h-14l-.29 7.9c-.16 4.4-.083 8.5.18 9.1.68 1.8 12 1.8 14 .017zm17-.84c.31-1.2.43-5.4.27-9.2l-.3-7-4.9-.31c-9.3-.59-9.6-.36-9.6 9.2 0 5.8.39 8.6 1.2 8.9.69.28 3.8.54 7 .58 5.2.071 5.8-.15 6.3-2.2zm-112 13v-36h41v71h-41zm20 21v-9h-14l-.29 7.9c-.16 4.4-.056 8.5.24 9.3.4 1 2.2 1.3 7.3 1.1l6.8-.3zm16-.25l.29-9.2h-15v19l14-.59zm-17-12c.93-.59 1.2-3.2 1-9.2l-.29-8.4h-14l-.29 7.9c-.16 4.4-.064 8.5.22 9.2.58 1.5 11 1.9 13 .49zm17-8.6v-9h-14l-.29 7.9c-.16 4.4-.056 8.5.24 9.3.4 1 2.2 1.3 7.3 1.1l6.8-.3zm-17-12c.73-.88 1.1-4.3.87-9.2l-.29-7.8-5.5-.26c-3-.14-6.1.12-6.8.59-1.9 1.2-2.9 15-1.2 17s11 2.1 13 .12zm17-8.1v-9l-4.9-.31c-8.9-.56-9.1-.37-9.1 8.5 0 4.3.38 8.4.84 9.1.57.89 2.8 1.2 7 1l6.2-.3zm117 20l.26-35 40-.54v71h-41zm20 21v-9.5h-15v19h15zm16 0v-9.5h-14v19h14zm-16-21v-9h-14l-.29 7.9c-.16 4.4-.056 8.5.24 9.3.4 1 2.2 1.3 7.3 1.1l6.8-.3zm16 0v-9l-14-.59v19l14-.59zm-16-20c.28-8.4.21-8.7-2.1-9.3-1.3-.32-4.6-.45-7.3-.28l-4.9.31-.29 7.9c-.16 4.4-.056 8.5.24 9.3.4 1 2.2 1.3 7.3 1.1l6.8-.3zm16-.28v-9h-13l-.29 7.9c-.16 4.4-.056 8.5.24 9.3.39 1 2.2 1.3 6.8 1.1l6.3-.3zm-361 70c.36-.59.91-30 1.2-64l.55-63-2.4-.58c-1.3-.32-50-.46-107-.31l-105 .27-.26 64 .22 65c.64 1.7 212 1.9 213 .18zm-175-25c-1.6-.3-1.7-3.6-1.7-42v-42h50l-.52 84h-23c-13 0-24-.15-25-.32zm23-7.9c-.055-.69-.17-6-.25-12l-.15-10h-8.5c-4.9 0-8.5.42-8.6 1-.061.55-.11 1.9-.11 3l.11 11 .11 9 8.8-.29c6.2-.21 8.7-.65 8.6-1.5zm20-10l.22-12h-18l-.56 24 18-.58zm-20-15c.21-.41.12-5.2-.19-11l-.57-10h-17l-.57 22h9c4.9 0 9.1-.34 9.4-.75zm21-10l-.28-11h-18l-.57 22h19zm-21-14c.23-.69.17-5.8-.14-11l-.57-10h-17l-.29 9.9c-.16 5.5-.06 11 .22 11 .7 1.8 17 1.9 18 .071zm20 .05c.77-.77 1.2-4.7 1.2-11 0-11 .23-11-9.5-11-9.8 0-9.5-.34-9.5 12 0 7.3.36 10 1.2 11 2.6 1.1 15 .64 17-.54zm47 14l.26-42h25c14 0 25 .34 25 .75v83h-50zm24 24l-.28-12-8.4-.29c-6.1-.21-8.6.069-9.2 1-.95 1.5-1.1 19-.24 21 .49 1.3 2.3 1.6 9.5 1.6h8.9zm20 0l-.28-12-18-.58v24h18zm-20-14c.43-.034.66-4.9.5-11l-.28-11-7-.3c-12-.52-12-.79-11 11 .22 6.3.78 10 1.5 11 .92.57 11 .72 17 .26zm21-11v-11l-18 .58-.57 22h18zm-20-23v-11l-7.8-.29c-4.9-.18-8.4.14-9.2.87-1.9 1.6-2 20-.16 21 .69.29 4.8.44 9.2.33l8-.19zm20 0v-11h-17l-.29 9.9c-.16 5.5-.053 11 .23 11 .4 1 2.5 1.3 8.8 1.1l8.3-.29zm643 28l-.26-65h-213l-.52 130h214zm-178-3l.26-42h50l.52 84h-51zm25 24l-.28-12h-18l-.56 24h19zm20 0l-.28-12-18-.58v24h18zm-21-15c.89-.28 1.2-3.3 1.2-10 0-12 .32-11-12-11l-7 .3-.29 9.9c-.16 5.5-.073 10 .19 11 .35.91 2.6 1.1 8.3.74 4.3-.28 8.4-.68 9.1-.9zm14 .55h7l-.57-22h-17l-.29 9.9c-.32 11 .069 13 2.4 12 .87-.33 4.7-.6 8.5-.6zm-14-34v-11h-18l-.28 11c-.33 12-.95 12 11 11l7.5-.15zm19 11c1.3-.5 1.6-2.4 1.6-11 0-12 .28-12-11-11l-6.5.3-.29 10c-.21 7.7.054 11 1 11 1.5.95 13 1.1 15 .24zm47 42c-.39-7.3-.54-26-.35-42l.35-28 50-.53v84h-50zm24-4.5l-.28-12-18-.58v24h18zm21-.25v-12h-18l-.56 24 19-.58zm-27-14l6.8-.014v-10c0-12 .43-12-11-12h-7.4v12c0 12 .011 12 2.2 11 1.2-.33 5.3-.61 9-.62zm28-11l-.28-11h-18l-.56 22h19zm-22-13c1.3-.5 1.6-2.4 1.6-11v-10l-3.3-.61c-1.8-.34-5.7-.47-8.8-.3l-5.5.32-.29 9.9c-.16 5.5-.06 11 .22 11 .53 1.4 13 1.9 16 .71zm22-1.3c.43-.4.66-5.2.5-11l-.29-9.9h-18l-.29 9.9c-.16 5.5-.048 11 .25 11 .43 1.1 2.2 1.3 8.8.7 4.5-.38 8.6-1 9-1.4zm-175-27v-3h-379v6h379zm-.21-14c.28-7.4.2-7.7-3.2-12-1.9-2.3-3.5-4.6-3.5-4.9s1.3-1.1 2.9-1.7c1.8-.6 7.1-5.8 14-14 26-29 43-50 44-52 .27-1.2-37-1.4-244-1.4l-244 .62c0 .34 3.9 5.1 8.8 11 4.8 5.5 12 14 17 19s12 14 18 20c5.3 6.1 11 12 12 14 1.2 1.5 3 2.5 4.5 2.5 3.6 0 3.4 2.4-.89 7.6-3.3 4-3.5 4.8-3.5 11 0 3.8.3 7.2.67 7.6s86 .56 189 .42l189-.25zm-327-7.1c.089-.69.11-10 .044-21-.11-19-.19-20-2.1-20-1.1 0-2-.4-2-.88 0-.74 16-13 20-15 .79-.48 4.6 1.7 10 5.8l10 7.2c2.1.82 1.8 3-.52 3.6-1.9.5-2 1.4-2 21v21h-17c-13 0-17-.29-17-1.2zm16-11v-7.5l-12-.6v7.4c0 4.1.32 7.7.71 8.1.39.39 3.2.58 6.2.42l5.5-.29zm14 0v-8h-12v7.3c0 4 .3 7.6.67 8 .37.37 3.1.67 6 .67h5.3zm-14-17v-6.5l-12-.6v14l12-.6zm14 .019c0-6.6-.13-7-2.5-7.6-1.4-.35-4.1-.33-6 .026l-3.5.66v14h12zm.5-12c0-1-24-2-26-1-.75.29-1.1.99-.73 1.6.85 1.4 27 .86 27-.52zm-2-5.5c.33-.53-2.2-3-5.6-5.5l-6.2-4.5-2.6 2-5.9 4.3c-5.8 3.9-4.4 4.7 8.2 4.7 6.3 0 12-.43 12-.97zm93 25c0-20-.082-21-2-21-1.9-.49-2.9-3.3-1.2-3.3.41-.01 5-3.2 10-7s9.8-7 10-7c.38 0 2.4 1.5 4.6 3.2s6.7 5 10 7.2c6.5 4.2 7.5 5.9 4.2 6.8-1.9.5-2 1.4-2 21v21h-34zm16 8.5v-8l-12 .6-.34 6.9c-.19 3.8-.1 7.3.2 7.8s3.2.87 6.5.87h5.9zm14-.25l.29-7.8-12 .6.059 6.8.11 7.8c.034.64 2.3.93 5.8.75l5.8-.3zm-14-17c0-7.6-.43-8.1-6.5-8.1-6 0-6.5.6-6.5 7.4 0 3.4.3 6.5.67 6.9.37.37 3.3.67 6.5.67h5.8zm14-.024c0-3.8-.45-7.1-.99-7.2-.55-.18-3.2-.18-5.9.01-4 .28-5 .73-5.5 2.5-.79 3-.76 10 .06 11 .37.37 3.3.67 6.5.67h5.8zm0-12c0-1.3-2.2-1.5-14-1.5-12 0-15 .43-13 2.3.37.37 6.4.67 14 .67 11 0 13-.24 13-1.5zm-1-5.8c-.027-1.4-11-9.1-12-8.9-2 .34-11 7.6-11 8.9-.036.93 3 1.2 12 1.2 8.9 0 12-.32 12-1.2zm91 26c0-20-.082-21-2-21-1.9-.49-2.9-3.3-1.2-3.3.42 0 5-3.2 10-7s9.5-7 9.8-7 3.9 2.6 8.2 5.8c4.2 3.2 9 6.6 10 7.6 3.2 2.1 3.5 3.5.75 3.5-1.9 0-2 .67-2 21v21h-34zm16 8.6v-7.5h-12l-.3 6.4c-.43 9-.26 9.3 6.5 8.9l5.8-.3zm14-.25l.29-7.8h-13v7.3c0 4 .32 7.7.71 8 .39.39 3.2.58 6.2.42l5.5-.29zm-14-17c.18-4.2-.1-6.8-.75-6.9-3.9-.46-7.9-.51-9.8-.12-2 .42-2.2 1-2.2 6.7 0 3.4.32 6.5.71 6.9.39.39 3.2.58 6.2.42l5.5-.29zm14 .34c.34-7.2-.16-7.9-5.6-7.5l-5.5.34c-1.5.088-1.8 1.1-1.8 6.4 0 3.5.32 6.7.71 7 .39.39 3.2.58 6.2.42l5.5-.29zm.7-12c0-.6-5.4-1.1-14-1.3-13-.25-15 .15-13 2.1 1.1 1.1 27 .28 27-.86zm-1.5-5.4c0-1.2-11-9.1-12-9.1-1.7 0-13 7.9-13 9.1 0 .51 5.5.92 12 .92 6.9 0 12-.4 12-.88zm-324 41c1-.91 1.8-2 1.8-2.5 0-.46-50-.84-111-.84h-111l3.6 4.9 107 .031c99 .029 108-.1 109-1.6zm601-.88l1.8-2.5h-111l-110 1.2c.39.69 1.1 1.8 1.7 2.5.76.99 24 1.2 109 1.2l108-.031zm-602-7.6c0-1.1-3.4-5.2-20-24-4.4-5-12-14-17-19l-56-64c-1.7-1.8-3-1.9-13-1.7l-11 .31-8.1 8.7-65 71-24 26c-1.8 1.1-1.6 2.5.47 3 .96.22 50 .47 108 .56l106-.94zm-125-38c0-22-.074-23-2-23-1.1-.29-2-.89-2-1.3 0-.45 3-2.9 6.8-5.4 3.7-2.5 8.8-6.1 11-7.9l4.6-3.3 10 7.9a307.79 307.79 0 0 0 11 7.9c1.6.031.64 1.8-1.2 2.3-1.9.5-2 1.4-2 23v23h-37zm18 9.6v-8.5l-14-.59v8.4c0 4.6.32 8.7.71 9.1.39.39 3.4.58 6.8.42l6-.29zm15-.3l.29-8.8-14 .59-.3 7.4c-.41 10-.4 10 7 9.9l6.3-.3zm-15-18l-.29-7.8-14-.59v16h14zm15-.3v-8l-14 .59-.3 6.4c-.42 9-.34 9.1 7.3 9.1h6.5zm0-12c0-2-2.4-2.4-16-2.6-11-.16-15 .74-14 3 .3.49 7 .89 15 .89 12 0 14-.27 14-1.4zm-1.2-5.5c-.18-.5-3.2-3-6.8-5.6-4.2-3.1-6.8-4.4-7.6-3.8-.66.48-3.7 2.6-6.8 4.7s-5.6 4.3-5.6 4.8 6.1.9 14 .9c7.7 0 13-.39 13-.91zm693 66c1.4-.92-.92-3.7-20-25-6.1-6.6-17-19-25-27-14-16-30-33-44-48l-8.5-9.2-24-.02-15 18-50 58c-21 25-28 32-27 33 .69 1.1 212 1.6 213 .45zm-127-27c-.36-6.2-.65-16-.65-23-.004-11-.15-11-2-12-2.8-.73-2.5-2 .86-3.7 1.6-.81 6.7-4.4 11-8l8.6-6.5 11 8c11 8.2 13 9.9 9.9 9.9-1.4 0-1.6 2.7-1.6 23v23h-37zm16 6.6c1.5-.4 1.8-1.7 1.8-8.9v-8.4h-14v8.3c0 4.6.3 8.6.67 9 .74.74 8.8.74 12 0zm18-8.7l.29-8.6h-14l-.33 8.1c-.18 4.4.089 8.5.6 9 .51.51 3.7.77 7 .59l6.1-.33zm-16-19v-8h-14v16h14zm16 0v-8h-14l-.33 7c-.18 3.9-.18 7.5.001 8 .18.54 3.4.98 7.2.98h6.9zm-.18-13c-.27-1.3-2.7-1.6-14-2-14-.45-16-.16-16 2.1 0 1.1 2.9 1.4 15 1.4 13 0 15-.21 15-1.5zm-1.8-5.3c0-.45-3-3-6.6-5.6-6.3-4.5-6.7-4.7-8.8-3.1-1.2.88-4.3 3-6.9 4.7s-4.5 3.5-4.2 4c.68 1.1 26 1.1 26 .047zm-506-51c0-.24 2-6.1 4.4-13l4.4-13-22-16 27-.56 1.1-4c.6-2.2 2.5-7.7 4.2-12l3.1-8.1 8.2 24 26 1-8.6 6.5-10 7.7c-1.3 1-.98 2.8 2.5 14 2.2 7 3.9 13 3.7 13-.18.18-5.1-3.3-11-7.8l-11-8.1-3.8 3.1c-6.2 5-17 13-18 13-.29 0-.54-.2-.54-.43zm116-.35c0-.51 1.8-6.4 4.1-13 2.2-6.8 3.7-13 3.2-13s-5.3-3.8-11-7.6l-9.7-7 27-.6 4-12c2.2-6.6 4.2-12 4.5-12s1.1 2.1 1.8 4.8c.68 2.6 2.4 8 3.8 12l2.6 7.2 26 .56-8.5 6.3c-13 9.6-12 7.7-7.7 22 2.2 6.8 3.8 12 3.7 13-.11.089-4.9-3.4-11-7.7l-11-7.9c-.57 0-4 2.5-16 12-3.2 2.4-5.8 4-5.8 3.5zm115-.4c1.1-3 7.8-24 7.8-25 0-.36-4.1-3.5-9-7.1l-11-7.7c-1.4-.98.91-1.2 12-1.3l14-.056 2.3-6.7a420.5 420.5 0 0 0 4-12c.91-2.9 1.9-5.2 2.2-5.2.28.015 2.3 5.4 4.5 12l4 12h27l-10 7.5c-5.5 4.1-10 7.9-11 8.3-.28.46 1.4 6.5 3.7 14 2.3 7 3.9 13 3.5 12s-5.5-3.8-11-8.1l-11-7.8-8.3 6.4-11 8.3c-2.6 1.7-2.9 1.7-2.3.24zm119-11c2.1-6.6 4.1-12 4.4-13 .55-.89-7.1-7-18-14l-4-2.7h27l3-8.3c1.7-4.6 3.3-10 3.7-12 .38-2 .97-3.6 1.3-3.6.68.011 3.1 6.4 6.4 17l2.1 6.7 27 .55-9.4 6.7c-5.2 3.7-9.9 7.3-10 8-.77.93.016 4.5 2.9 13 2.2 6.6 3.9 12 3.9 13s-3.9-2.1-8.8-5.8-9.7-7.2-11-8c-2-1.4-2.6-1.1-10 4.9-4.6 3.5-9.5 7.1-11 8.1l-2.6 1.7z"/></svg>